<svg width="43" height="56" viewBox="0 0 43 56" fill="none" xmlns="http://www.w3.org/2000/svg">
<path d="M0 0H29.1071L43 13.5V56H0V0Z" fill="#1C6FB7"/>
<path d="M10.4434 16.6719H32.1172L32.1523 23.9316H31.1152C30.7754 21.3418 29.8027 19.5898 28.1973 18.6758C27.2949 18.1719 25.9473 17.8965 24.1543 17.8496V36.7988C24.1543 38.123 24.3828 39.002 24.8398 39.4355C25.3086 39.8691 26.2754 40.0859 27.7402 40.0859V41H14.9082V40.0859C16.3145 40.0859 17.2461 39.8691 17.7031 39.4355C18.1719 38.9902 18.4062 38.1113 18.4062 36.7988V17.8496C16.6484 17.8965 15.3008 18.1719 14.3633 18.6758C12.6406 19.6133 11.668 21.3652 11.4453 23.9316H10.4082L10.4434 16.6719Z" fill="white"/>
<path d="M29 14V0L43 14V28L29 14Z" fill="black" fill-opacity="0.37"/>
<path d="M41 14L29 2V14H41Z" fill="white" fill-opacity="0.59"/>
</svg>
